<svg width="138" height="92" viewBox="0 0 138 92" fill="none" xmlns="http://www.w3.org/2000/svg">
<path d="M13 0.5L0.5 11.5V81.5L10.5 90L111 91L123 81.5V51.5L137 81.5V11.5L123 38.5V11.5L111 0.5H13Z" stroke="#FF9000" stroke-linecap="round" stroke-linejoin="round"/>
<path d="M15.8132 4L4 14.2099V79.1823L13.4505 87.0718L108.429 88L119.769 79.1823V51.337L133 79.1823V14.2099L119.769 39.2707V14.2099L108.429 4H15.8132Z" stroke="#FF9000" stroke-linecap="round" stroke-linejoin="round"/>
<path d="M24.5781 36.6953C24.5781 36.9922 24.4766 37.2109 24.2734 37.3516C24.0859 37.5078 23.875 37.5859 23.6406 37.5859C23.4062 37.5859 23.1953 37.5078 23.0078 37.3516C22.8203 37.2109 22.7266 36.9922 22.7266 36.6953C22.7266 35.4766 22.8672 34.3047 23.1484 33.1797C23.4297 32.0547 23.7812 30.9375 24.2031 29.8281C24.0938 29.625 24.0625 29.3984 24.1094 29.1484C24.2031 28.8203 24.4062 28.6172 24.7188 28.5391C25.0312 27.7891 25.3516 27.0469 25.6797 26.3125C26.0234 25.5625 26.3516 24.8125 26.6641 24.0625C26.9766 23.3125 27.2656 22.5547 27.5312 21.7891C27.7969 21.0234 28.0156 20.2422 28.1875 19.4453C28.2344 19.2109 28.3281 19.0078 28.4688 18.8359C28.625 18.6641 28.8359 18.5781 29.1016 18.5781C29.3516 18.5781 29.5781 18.6719 29.7812 18.8594C29.9844 19.0312 30.0703 19.25 30.0391 19.5156C29.9922 20.4219 30.0078 21.2578 30.0859 22.0234C30.1641 22.7734 30.2812 23.5234 30.4375 24.2734C30.5938 25.0078 30.7656 25.75 30.9531 26.5C31.1562 27.2344 31.3438 27.9688 31.5156 28.7031C31.6875 29.4062 31.8438 30.1094 31.9844 30.8125C32.125 31.5156 32.3516 32.1953 32.6641 32.8516C32.8203 33.1797 32.9844 33.5 33.1562 33.8125C33.3281 34.1094 33.5156 34.4141 33.7188 34.7266C33.9062 35.0078 34.0781 35.3047 34.2344 35.6172C34.3906 35.9141 34.5 36.2422 34.5625 36.6016C34.5938 36.8516 34.5547 37.0859 34.4453 37.3047C34.3516 37.5234 34.1719 37.6719 33.9062 37.75C33.6875 37.8125 33.4531 37.7812 33.2031 37.6562C32.9531 37.5312 32.8047 37.3438 32.7578 37.0938C32.6953 36.7344 32.5703 36.4141 32.3828 36.1328C32.2109 35.8516 32.0312 35.5625 31.8438 35.2656C31.625 34.9219 31.4219 34.5781 31.2344 34.2344C31.0625 33.875 30.9062 33.5078 30.7656 33.1328C30.6094 32.7422 30.4766 32.3516 30.3672 31.9609C30.2578 31.5547 30.1562 31.1484 30.0625 30.7422C29.3594 30.6953 28.6641 30.6641 27.9766 30.6484C27.3047 30.6172 26.625 30.5625 25.9375 30.4844C25.5625 31.4844 25.2422 32.5 24.9766 33.5312C24.7266 34.5625 24.5938 35.6172 24.5781 36.6953ZM26.7812 28.3984C26.75 28.4453 26.7266 28.5 26.7109 28.5625C26.7109 28.6094 26.6953 28.6562 26.6641 28.7031C27.1641 28.75 27.6562 28.7812 28.1406 28.7969C28.625 28.7969 29.1172 28.8125 29.6172 28.8438C29.4453 28.0938 29.2578 27.3516 29.0547 26.6172C28.8672 25.8672 28.6953 25.1094 28.5391 24.3438C28.2578 25.0312 27.9688 25.7109 27.6719 26.3828C27.375 27.0391 27.0781 27.7109 26.7812 28.3984ZM35.6406 23.4297C35.6094 23.1797 35.5703 22.9375 35.5234 22.7031C35.4922 22.4688 35.4688 22.2344 35.4531 22C35.4219 21.7188 35.4141 21.4219 35.4297 21.1094C35.4609 20.7969 35.5234 20.5 35.6172 20.2188C35.7266 19.9375 35.875 19.6875 36.0625 19.4688C36.25 19.25 36.5078 19.0938 36.8359 19C37.3359 18.8594 37.8438 18.8828 38.3594 19.0703C38.875 19.2422 39.3594 19.4375 39.8125 19.6562C40.25 19.875 40.6797 20.1094 41.1016 20.3594C41.5234 20.6094 41.9609 20.8438 42.4141 21.0625C42.6484 21.1719 42.8828 21.2891 43.1172 21.4141C43.3516 21.5391 43.5547 21.6875 43.7266 21.8594C43.9141 22.0156 44.0625 22.2109 44.1719 22.4453C44.2969 22.6641 44.3672 22.9219 44.3828 23.2188C44.3984 23.5312 44.3438 23.8359 44.2188 24.1328C44.1094 24.4297 43.9922 24.7188 43.8672 25C43.1641 26.5625 42.2656 28.0234 41.1719 29.3828C40.7656 29.8828 40.3047 30.3516 39.7891 30.7891C39.2891 31.2109 38.7188 31.4844 38.0781 31.6094C38.2188 32.5 38.375 33.375 38.5469 34.2344C38.7344 35.0938 38.9453 35.9609 39.1797 36.8359C39.2578 37.1328 39.2188 37.375 39.0625 37.5625C38.9219 37.7656 38.7422 37.8984 38.5234 37.9609C38.3047 38.0234 38.0781 38.0078 37.8438 37.9141C37.6094 37.8203 37.4531 37.625 37.375 37.3281C36.875 35.4219 36.4922 33.5156 36.2266 31.6094C35.9609 29.6875 35.7891 27.7344 35.7109 25.75C35.6953 25.4844 35.6875 25.2266 35.6875 24.9766C35.6875 24.7266 35.6797 24.4688 35.6641 24.2031C35.6641 24.0938 35.6641 23.9922 35.6641 23.8984C35.6641 23.7891 35.6562 23.6875 35.6406 23.5938V23.4297ZM37.3047 21.1562C37.2891 21.5 37.3047 21.8672 37.3516 22.2578C37.3672 22.4297 37.375 22.5391 37.375 22.5859C37.3906 22.6328 37.3984 22.6719 37.3984 22.7031L37.4688 23.125C37.5156 23.5938 37.5391 24.0703 37.5391 24.5547C37.5703 25.2422 37.5938 25.9297 37.6094 26.6172C37.6406 27.2891 37.6875 27.9688 37.75 28.6562C37.7656 28.8438 37.7734 29.0312 37.7734 29.2188C37.7891 29.4062 37.8125 29.5859 37.8438 29.7578C38 29.7109 38.1094 29.6719 38.1719 29.6406C38.2344 29.5938 38.2969 29.5547 38.3594 29.5234C38.4531 29.4609 38.5234 29.4062 38.5703 29.3594C38.9609 29.0469 39.2891 28.7344 39.5547 28.4219C39.8203 28.1094 40.0703 27.7891 40.3047 27.4609C40.8203 26.7422 41.2812 26 41.6875 25.2344C41.7656 25.0625 41.8438 24.9062 41.9219 24.7656C42 24.6094 42.0781 24.4453 42.1562 24.2734C42.1875 24.1953 42.2188 24.125 42.25 24.0625C42.2812 24 42.3125 23.9297 42.3438 23.8516C42.4219 23.6641 42.4766 23.5078 42.5078 23.3828C42.5078 23.2734 42.4844 23.1953 42.4375 23.1484C42.2188 23.0234 42.0547 22.9375 41.9453 22.8906C41.4922 22.6719 41.0547 22.4531 40.6328 22.2344C40.2109 22 39.7734 21.7578 39.3203 21.5078C39.1016 21.3828 38.875 21.2656 38.6406 21.1562C38.4219 21.0469 38.1875 20.9531 37.9375 20.875C37.8906 20.8594 37.8359 20.8438 37.7734 20.8281C37.7266 20.8125 37.6797 20.8047 37.6328 20.8047C37.5234 20.7891 37.4609 20.7891 37.4453 20.8047C37.4297 20.8047 37.4141 20.8047 37.3984 20.8047C37.3672 20.8516 37.3438 20.8984 37.3281 20.9453C37.3281 20.9922 37.3203 21.0312 37.3047 21.0625V21.1562ZM54.2031 36.4141C54.0781 36.6328 53.8828 36.7812 53.6172 36.8594C53.3672 36.9375 53.1328 36.8984 52.9141 36.7422C52.4922 36.4297 52.0859 36.1094 51.6953 35.7812C51.3047 35.4375 50.8828 35.1328 50.4297 34.8672C50.0234 34.6172 49.6172 34.3906 49.2109 34.1875C48.8047 33.9688 48.4141 33.7188 48.0391 33.4375C47.5859 33.0938 47.1641 32.7188 46.7734 32.3125C46.7578 33.0938 46.7656 33.875 46.7969 34.6562C46.8281 35.4219 46.875 36.1953 46.9375 36.9766C46.9688 37.2422 46.8828 37.4609 46.6797 37.6328C46.4766 37.8203 46.2578 37.9141 46.0234 37.9141C45.7422 37.9141 45.5234 37.8203 45.3672 37.6328C45.2109 37.4609 45.1172 37.2422 45.0859 36.9766C44.9922 35.8516 44.9375 34.75 44.9219 33.6719C44.9062 32.5781 44.9297 31.4766 44.9922 30.3672C44.8672 30.1953 44.7422 30.0234 44.6172 29.8516C44.4922 29.6641 44.375 29.4766 44.2656 29.2891C44.1719 29.1016 44.1328 28.9219 44.1484 28.75C44.1797 28.5781 44.2422 28.4297 44.3359 28.3047C44.4453 28.1797 44.5703 28.0781 44.7109 28C44.8672 27.9219 45.0312 27.8906 45.2031 27.9062C45.2344 27.5469 45.2734 27.1875 45.3203 26.8281C45.3672 26.4531 45.4141 26.0859 45.4609 25.7266C45.5078 25.4766 45.5469 25.2344 45.5781 25C45.625 24.75 45.6641 24.5 45.6953 24.25C45.7266 24.125 45.7422 24.0078 45.7422 23.8984C45.7578 23.7891 45.7812 23.6719 45.8125 23.5469C45.8125 23.4844 45.8281 23.4062 45.8594 23.3125C45.875 23.1094 45.8828 22.9141 45.8828 22.7266C45.8828 22.5234 45.8906 22.3203 45.9062 22.1172C45.9219 21.8672 45.9453 21.6016 45.9766 21.3203C46.0234 21.0234 46.0859 20.7422 46.1641 20.4766C46.2578 20.1953 46.3828 19.9375 46.5391 19.7031C46.6953 19.4688 46.9062 19.2891 47.1719 19.1641C47.4219 19.0547 47.6719 18.9922 47.9219 18.9766C48.1875 18.9609 48.4453 18.9766 48.6953 19.0234C48.9609 19.0703 49.2188 19.1406 49.4688 19.2344C49.7188 19.3125 49.9609 19.3984 50.1953 19.4922C50.7422 19.6953 51.2812 19.9297 51.8125 20.1953C52.3594 20.4453 52.8438 20.7734 53.2656 21.1797C53.6719 21.5859 54.0234 22.0703 54.3203 22.6328C54.6172 23.1797 54.75 23.75 54.7188 24.3438C54.6875 24.7031 54.6094 25.0234 54.4844 25.3047C54.375 25.5703 54.2188 25.8438 54.0156 26.125C53.5156 26.8281 52.9766 27.5 52.3984 28.1406C51.8203 28.7812 51.2031 29.3672 50.5469 29.8984C50.2344 30.1484 49.8906 30.3984 49.5156 30.6484C49.1562 30.8984 48.7734 31.1094 48.3672 31.2812C48.5078 31.4062 48.6484 31.5312 48.7891 31.6562C48.9297 31.7812 49.0781 31.8906 49.2344 31.9844C49.6406 32.25 50.0469 32.5 50.4531 32.7344C50.875 32.9531 51.2812 33.1953 51.6719 33.4609C52.0469 33.7266 52.4141 34.0078 52.7734 34.3047C53.1328 34.6016 53.4922 34.8828 53.8516 35.1484C54.0703 35.2891 54.2109 35.4766 54.2734 35.7109C54.3516 35.9453 54.3281 36.1797 54.2031 36.4141ZM47.875 29.4531C48.25 29.25 48.5859 29.0391 48.8828 28.8203C49.1953 28.5859 49.5 28.3359 49.7969 28.0703C50.1094 27.7891 50.4141 27.4922 50.7109 27.1797C51.0078 26.8672 51.2969 26.5547 51.5781 26.2422C51.6875 26.1016 51.7891 25.9766 51.8828 25.8672C51.9766 25.7578 52.0625 25.6562 52.1406 25.5625C52.2188 25.4531 52.2969 25.3438 52.375 25.2344C52.4688 25.1094 52.5625 24.9688 52.6562 24.8125C52.6875 24.7656 52.7188 24.7188 52.75 24.6719C52.7812 24.625 52.8125 24.5781 52.8438 24.5312C52.8594 24.0938 52.7656 23.6875 52.5625 23.3125C52.2969 22.8594 51.9609 22.4922 51.5547 22.2109C51.1641 21.9297 50.7266 21.6953 50.2422 21.5078C49.9609 21.3828 49.6797 21.2734 49.3984 21.1797C49.1172 21.0859 48.8203 21 48.5078 20.9219C48.4297 20.8906 48.3125 20.8594 48.1562 20.8281C48.0625 20.8594 48 20.9062 47.9688 20.9688C47.9062 21.1719 47.875 21.3125 47.875 21.3906C47.8594 21.4375 47.8359 21.5234 47.8047 21.6484C47.7891 21.8047 47.7734 21.9297 47.7578 22.0234C47.7578 22.1016 47.7578 22.1875 47.7578 22.2812C47.7109 23.3594 47.5938 24.4219 47.4062 25.4688C47.2344 26.5156 47.0938 27.5781 46.9844 28.6562C46.9531 28.8281 46.9297 29.0078 46.9141 29.1953C46.9141 29.3672 46.9062 29.5391 46.8906 29.7109C47.0312 29.7266 47.1094 29.7266 47.125 29.7109C47.2969 29.6797 47.4297 29.6484 47.5234 29.6172C47.6328 29.5703 47.75 29.5156 47.875 29.4531ZM56.0312 22.8906C55.7188 22.7969 55.5312 22.5938 55.4688 22.2812C55.3906 22.0625 55.4141 21.8281 55.5391 21.5781C55.6641 21.3125 55.8594 21.1641 56.125 21.1328C57.6406 20.8984 59.1562 20.7734 60.6719 20.7578C62.2031 20.7266 63.7344 20.7031 65.2656 20.6875C65.5625 20.6875 65.7891 20.7812 65.9453 20.9688C66.1016 21.1562 66.1797 21.3672 66.1797 21.6016C66.1797 21.8359 66.1016 22.0547 65.9453 22.2578C65.7891 22.4453 65.5625 22.5391 65.2656 22.5391C64.0469 22.5703 62.8203 22.5859 61.5859 22.5859C60.3516 22.5859 59.1172 22.6484 57.8828 22.7734C57.9141 23.3984 57.9531 24.0234 58 24.6484C58.0469 25.2578 58.0938 25.875 58.1406 26.5C59.3281 26.4375 60.5078 26.3594 61.6797 26.2656C62.8672 26.1719 64.0547 26.1562 65.2422 26.2188C65.5391 26.2344 65.7656 26.3438 65.9219 26.5469C66.0781 26.75 66.1562 26.9688 66.1562 27.2031C66.1562 27.4375 66.0781 27.6484 65.9219 27.8359C65.7656 28.0234 65.5391 28.1094 65.2422 28.0938C64.0703 28.0312 62.9062 28.0469 61.75 28.1406C60.6094 28.2344 59.4531 28.3125 58.2812 28.375C58.375 29.5 58.4609 30.625 58.5391 31.75C58.6328 32.8594 58.6953 33.9766 58.7266 35.1016C59.2734 34.9766 59.8281 34.8594 60.3906 34.75C60.9531 34.625 61.5156 34.5312 62.0781 34.4688C62.6406 34.3906 63.2031 34.3516 63.7656 34.3516C64.3281 34.3516 64.8906 34.3984 65.4531 34.4922C65.7031 34.5391 65.8906 34.6875 66.0156 34.9375C66.1406 35.1875 66.1719 35.4219 66.1094 35.6406C66.0312 35.9062 65.8828 36.0938 65.6641 36.2031C65.4453 36.3125 65.2031 36.3438 64.9375 36.2969C64.4375 36.2031 63.9297 36.1719 63.4141 36.2031C62.8984 36.2344 62.3906 36.2891 61.8906 36.3672C61.3125 36.4609 60.7344 36.5703 60.1562 36.6953C59.5938 36.8203 59.0312 36.9531 58.4688 37.0938C58.2031 37.1562 57.9531 37.1094 57.7188 36.9531C57.5 36.9219 57.3047 36.8359 57.1328 36.6953C56.9609 36.5547 56.875 36.3438 56.875 36.0625C56.8438 34.7344 56.7812 33.4219 56.6875 32.125C56.6094 30.8281 56.5156 29.5234 56.4062 28.2109C56.2344 28.0391 56.1328 27.8281 56.1016 27.5781C56.0859 27.3125 56.1562 27.0859 56.3125 26.8984C56.1875 25.5703 56.0938 24.2344 56.0312 22.8906ZM68.1719 23.2656C68.1406 23.2344 68.1094 23.2031 68.0781 23.1719C68.0625 23.1406 68.0391 23.1094 68.0078 23.0781C67.8203 22.8906 67.7266 22.6953 67.7266 22.4922C67.7422 22.2734 67.8047 22.0859 67.9141 21.9297C68.0391 21.7578 68.1953 21.6328 68.3828 21.5547C68.5859 21.4609 68.7891 21.4531 68.9922 21.5312C69.2422 21.5 69.4766 21.5625 69.6953 21.7188C69.9297 21.8594 70.0469 22.0938 70.0469 22.4219C70.8438 23.375 71.5938 24.3125 72.2969 25.2344C73 26.1562 73.6406 27.1328 74.2188 28.1641C74.4844 28.6328 74.7266 29.1172 74.9453 29.6172C75.1797 30.1016 75.3984 30.5938 75.6016 31.0938C75.6016 30.4531 75.625 29.8203 75.6719 29.1953C75.7344 28.5703 75.8047 27.9297 75.8828 27.2734C76.0547 25.9297 76.2188 24.5938 76.375 23.2656C76.5469 21.9219 76.6406 20.5625 76.6562 19.1875C76.6562 18.8906 76.75 18.6719 76.9375 18.5312C77.1406 18.375 77.3594 18.2969 77.5938 18.2969C77.8281 18.2969 78.0391 18.375 78.2266 18.5312C78.4297 18.6719 78.5312 18.8906 78.5312 19.1875C78.5156 20.5938 78.4141 21.9844 78.2266 23.3594C78.0547 24.7188 77.8828 26.0859 77.7109 27.4609C77.6328 28.1641 77.5703 28.8594 77.5234 29.5469C77.4766 30.2188 77.4609 30.9062 77.4766 31.6094C77.4922 32.2812 77.5078 32.9453 77.5234 33.6016C77.5547 34.2578 77.5547 34.9219 77.5234 35.5938C77.5078 35.8281 77.4297 36.0234 77.2891 36.1797C77.1641 36.3203 77.0078 36.4141 76.8203 36.4609C76.6328 36.5078 76.4453 36.5 76.2578 36.4375C76.0703 36.375 75.9141 36.25 75.7891 36.0625C75.4297 35.5156 75.125 34.9453 74.875 34.3516C74.625 33.7422 74.3906 33.1406 74.1719 32.5469C73.9531 31.9688 73.7266 31.4141 73.4922 30.8828C73.2578 30.3359 72.9922 29.7969 72.6953 29.2656C72.3047 28.5625 71.8828 27.8906 71.4297 27.25C70.9922 26.6094 70.5234 25.9844 70.0234 25.375C70.0234 26.0156 70.0234 26.6484 70.0234 27.2734C70.0234 27.8828 70.0391 28.5078 70.0703 29.1484C70.1016 30.2734 70.1797 31.3906 70.3047 32.5C70.4297 33.5938 70.5625 34.6953 70.7031 35.8047C70.7344 36.0703 70.6406 36.2969 70.4219 36.4844C70.2188 36.6562 70.0078 36.7422 69.7891 36.7422C69.5078 36.7422 69.2891 36.6562 69.1328 36.4844C68.9766 36.2969 68.8828 36.0703 68.8516 35.8047C68.6953 34.6953 68.5547 33.5938 68.4297 32.5C68.3047 31.3906 68.2266 30.2734 68.1953 29.1484C68.1641 28.1641 68.1484 27.1875 68.1484 26.2188C68.1641 25.2344 68.1719 24.25 68.1719 23.2656ZM91.375 31.2109C91.2969 32.1641 91.0156 33.0156 90.5312 33.7656C90.0469 34.5 89.4062 35.125 88.6094 35.6406C88.0781 35.9688 87.5078 36.2656 86.8984 36.5312C86.2891 36.7969 85.6797 37 85.0703 37.1406C84.5234 37.2656 83.9844 37.3203 83.4531 37.3047C82.9375 37.2891 82.4141 37.25 81.8828 37.1875C81.7578 37.3281 81.6016 37.4219 81.4141 37.4688C81.2422 37.5312 81.0703 37.5391 80.8984 37.4922C80.5391 37.3984 80.3203 37.1719 80.2422 36.8125C80.0547 36.625 79.9609 36.3984 79.9609 36.1328C79.9609 35.7891 80.1172 35.5156 80.4297 35.3125C80.5234 34.6875 80.5938 34.0625 80.6406 33.4375C80.7031 32.8125 80.75 32.1797 80.7812 31.5391C80.8281 30.7891 80.8672 30.0469 80.8984 29.3125C80.9297 28.5781 80.9375 27.8359 80.9219 27.0859C80.9219 26.6172 80.9062 26.1328 80.875 25.6328C80.8438 25.1328 80.8281 24.6406 80.8281 24.1562C80.8281 23.6562 80.8516 23.1641 80.8984 22.6797C80.9609 22.1953 81.0781 21.7266 81.25 21.2734C81.1719 21.0234 81.1875 20.7656 81.2969 20.5C81.4062 20.2344 81.6172 20.0703 81.9297 20.0078C82.1172 19.8047 82.3359 19.7109 82.5859 19.7266C82.8516 19.7422 83.0703 19.8281 83.2422 19.9844C84.0078 20.0469 84.75 20.1953 85.4688 20.4297C86.2031 20.6484 86.875 21.0078 87.4844 21.5078C88.2344 22.1016 88.8359 22.8203 89.2891 23.6641C89.7422 24.4922 90.1094 25.3516 90.3906 26.2422C90.5156 26.6328 90.6406 27.0312 90.7656 27.4375C90.9062 27.8438 91.0234 28.2578 91.1172 28.6797C91.2266 29.1016 91.3047 29.5234 91.3516 29.9453C91.3984 30.3672 91.4062 30.7891 91.375 31.2109ZM87.4609 34.1406C87.6641 34.0156 87.8438 33.8906 88 33.7656C88.1719 33.6406 88.3438 33.4922 88.5156 33.3203C88.6562 33.1641 88.7656 33.0391 88.8438 32.9453C88.9219 32.8516 89.0156 32.7109 89.125 32.5234C89.3906 31.9766 89.5156 31.3594 89.5 30.6719C89.5 30.2812 89.4688 29.9219 89.4062 29.5938C89.3438 29.25 89.25 28.8672 89.125 28.4453C89 28.0078 88.8672 27.5781 88.7266 27.1562C88.6016 26.7188 88.4531 26.2969 88.2812 25.8906C88.1562 25.5469 87.9844 25.1797 87.7656 24.7891C87.5625 24.3828 87.3516 24.0469 87.1328 23.7812C86.5859 23.125 85.9688 22.6562 85.2812 22.375C84.5938 22.0781 83.8438 21.9062 83.0312 21.8594C82.8594 22.2969 82.75 22.7578 82.7031 23.2422C82.6719 23.7109 82.6641 24.1875 82.6797 24.6719C82.6953 25.1562 82.7188 25.6406 82.75 26.125C82.7969 26.6094 82.8125 27.0781 82.7969 27.5312C82.7344 28.8594 82.6719 30.1719 82.6094 31.4688C82.5625 32.7656 82.4531 34.0703 82.2812 35.3828C82.5625 35.4141 82.8438 35.4375 83.125 35.4531C83.4219 35.4688 83.7109 35.4609 83.9922 35.4297C84.5859 35.3672 85.1797 35.2188 85.7734 34.9844C86.3828 34.7344 86.9453 34.4531 87.4609 34.1406ZM94.5859 36.6953C94.5859 36.9922 94.4844 37.2109 94.2812 37.3516C94.0938 37.5078 93.8828 37.5859 93.6484 37.5859C93.4141 37.5859 93.2031 37.5078 93.0156 37.3516C92.8281 37.2109 92.7344 36.9922 92.7344 36.6953C92.7344 35.4766 92.875 34.3047 93.1562 33.1797C93.4375 32.0547 93.7891 30.9375 94.2109 29.8281C94.1016 29.625 94.0703 29.3984 94.1172 29.1484C94.2109 28.8203 94.4141 28.6172 94.7266 28.5391C95.0391 27.7891 95.3594 27.0469 95.6875 26.3125C96.0312 25.5625 96.3594 24.8125 96.6719 24.0625C96.9844 23.3125 97.2734 22.5547 97.5391 21.7891C97.8047 21.0234 98.0234 20.2422 98.1953 19.4453C98.2422 19.2109 98.3359 19.0078 98.4766 18.8359C98.6328 18.6641 98.8438 18.5781 99.1094 18.5781C99.3594 18.5781 99.5859 18.6719 99.7891 18.8594C99.9922 19.0312 100.078 19.25 100.047 19.5156C100 20.4219 100.016 21.2578 100.094 22.0234C100.172 22.7734 100.289 23.5234 100.445 24.2734C100.602 25.0078 100.773 25.75 100.961 26.5C101.164 27.2344 101.352 27.9688 101.523 28.7031C101.695 29.4062 101.852 30.1094 101.992 30.8125C102.133 31.5156 102.359 32.1953 102.672 32.8516C102.828 33.1797 102.992 33.5 103.164 33.8125C103.336 34.1094 103.523 34.4141 103.727 34.7266C103.914 35.0078 104.086 35.3047 104.242 35.6172C104.398 35.9141 104.508 36.2422 104.57 36.6016C104.602 36.8516 104.562 37.0859 104.453 37.3047C104.359 37.5234 104.18 37.6719 103.914 37.75C103.695 37.8125 103.461 37.7812 103.211 37.6562C102.961 37.5312 102.812 37.3438 102.766 37.0938C102.703 36.7344 102.578 36.4141 102.391 36.1328C102.219 35.8516 102.039 35.5625 101.852 35.2656C101.633 34.9219 101.43 34.5781 101.242 34.2344C101.07 33.875 100.914 33.5078 100.773 33.1328C100.617 32.7422 100.484 32.3516 100.375 31.9609C100.266 31.5547 100.164 31.1484 100.07 30.7422C99.3672 30.6953 98.6719 30.6641 97.9844 30.6484C97.3125 30.6172 96.6328 30.5625 95.9453 30.4844C95.5703 31.4844 95.25 32.5 94.9844 33.5312C94.7344 34.5625 94.6016 35.6172 94.5859 36.6953ZM96.7891 28.3984C96.7578 28.4453 96.7344 28.5 96.7188 28.5625C96.7188 28.6094 96.7031 28.6562 96.6719 28.7031C97.1719 28.75 97.6641 28.7812 98.1484 28.7969C98.6328 28.7969 99.125 28.8125 99.625 28.8438C99.4531 28.0938 99.2656 27.3516 99.0625 26.6172C98.875 25.8672 98.7031 25.1094 98.5469 24.3438C98.2656 25.0312 97.9766 25.7109 97.6797 26.3828C97.3828 27.0391 97.0859 27.7109 96.7891 28.3984Z" fill="white"/>
<path d="M31.9922 70.1875C31.7422 70.1875 31.5391 70.125 31.3828 70C31.2422 69.8594 31.1484 69.7031 31.1016 69.5312C31.0547 69.3438 31.0547 69.1562 31.1016 68.9688C31.1641 68.7812 31.2734 68.625 31.4297 68.5C31.5547 67.9688 31.5859 67.4375 31.5234 66.9062C31.4609 66.3594 31.3984 65.8203 31.3359 65.2891C31.2578 64.6328 31.2344 63.9922 31.2656 63.3672C31.2969 62.7266 31.3594 62.0781 31.4531 61.4219C31.5469 60.7656 31.6484 60.1172 31.7578 59.4766C31.8672 58.8203 31.9609 58.1641 32.0391 57.5078C32.1172 56.8047 32.1797 56.1094 32.2266 55.4219C32.2891 54.7344 32.3359 54.0391 32.3672 53.3359C32.3672 53.0391 32.4688 52.8125 32.6719 52.6562C32.875 52.5 33.0938 52.4219 33.3281 52.4219C33.5625 52.4219 33.7734 52.5 33.9609 52.6562C34.1484 52.8125 34.2344 53.0391 34.2188 53.3359C34.1875 54.0703 34.1406 54.7969 34.0781 55.5156C34.0312 56.2344 33.9688 56.9688 33.8906 57.7188C33.8125 58.4062 33.7109 59.0781 33.5859 59.7344C33.4766 60.3906 33.375 61.0625 33.2812 61.75C33.1875 62.4062 33.1406 63.0547 33.1406 63.6953C33.1406 64.3203 33.1797 64.9609 33.2578 65.6172C33.3047 66.0703 33.3438 66.5234 33.375 66.9766C33.4219 67.4297 33.4141 67.8828 33.3516 68.3359C34.5234 68.3672 35.6953 68.4297 36.8672 68.5234C38.0391 68.6016 39.2109 68.6641 40.3828 68.7109C40.6797 68.7266 40.8984 68.8359 41.0391 69.0391C41.1953 69.2422 41.2734 69.4609 41.2734 69.6953C41.2734 69.9297 41.1953 70.1406 41.0391 70.3281C40.8984 70.5156 40.6797 70.6016 40.3828 70.5859C38.9609 70.5234 37.5547 70.4375 36.1641 70.3281C34.7891 70.2344 33.3984 70.1875 31.9922 70.1875ZM40.7344 70C40.4531 69.9219 40.2656 69.7656 40.1719 69.5312C40.0781 69.2969 40.0625 69.0703 40.125 68.8516C40.1875 68.6328 40.3125 68.4531 40.5 68.3125C40.7031 68.1562 40.9453 68.1172 41.2266 68.1953C41.8516 68.3828 42.4766 68.5 43.1016 68.5469C43.7266 68.5938 44.3672 68.6016 45.0234 68.5703C44.7578 67.4609 44.625 66.3516 44.625 65.2422C44.625 64.1172 44.6641 63 44.7422 61.8906C44.8359 60.7656 44.9219 59.6406 45 58.5156C45.0938 57.3906 45.1016 56.2656 45.0234 55.1406C44.4297 55.125 43.8281 55.1016 43.2188 55.0703C42.625 55.0234 42.0312 54.9609 41.4375 54.8828C41.1719 54.8516 40.9453 54.7578 40.7578 54.6016C40.5859 54.4453 40.5 54.2344 40.5 53.9688C40.5 53.7344 40.5859 53.5156 40.7578 53.3125C40.9453 53.0938 41.1719 53 41.4375 53.0312C42.1562 53.1094 42.875 53.1797 43.5938 53.2422C44.3281 53.2891 45.0547 53.3047 45.7734 53.2891C46.4922 53.2734 47.2031 53.2109 47.9062 53.1016C48.625 52.9922 49.3359 52.8125 50.0391 52.5625C50.2734 52.4844 50.5 52.5156 50.7188 52.6562C50.9531 52.7969 51.1094 52.9844 51.1875 53.2188C51.2656 53.4844 51.2344 53.7266 51.0938 53.9453C50.9688 54.1484 50.7812 54.2891 50.5312 54.3672C49.3594 54.7734 48.1406 55.0156 46.875 55.0938C46.9688 56.2031 46.9688 57.3203 46.875 58.4453C46.7812 59.5703 46.6875 60.6875 46.5938 61.7969C46.5 62.9062 46.4531 64.0156 46.4531 65.125C46.4688 66.2344 46.6172 67.3359 46.8984 68.4297C47.3984 68.3828 47.8906 68.3359 48.375 68.2891C48.8594 68.2422 49.3438 68.2031 49.8281 68.1719C50.125 68.1562 50.3438 68.2422 50.4844 68.4297C50.6406 68.6016 50.7188 68.8047 50.7188 69.0391C50.7188 69.2734 50.6406 69.4922 50.4844 69.6953C50.3438 69.8984 50.125 70.0078 49.8281 70.0234C49.0625 70.0703 48.2969 70.1328 47.5312 70.2109C46.7812 70.3047 46.0234 70.3672 45.2578 70.3984C44.5078 70.4453 43.75 70.4453 42.9844 70.3984C42.2344 70.3516 41.4844 70.2188 40.7344 70ZM52.7344 61.7266C52.4844 61.7578 52.2656 61.6719 52.0781 61.4688C51.9062 61.2656 51.8203 61.0469 51.8203 60.8125C51.8203 60.5312 51.9062 60.3125 52.0781 60.1562C52.2656 60 52.4922 59.9062 52.7578 59.875C52.8984 58.8594 52.9844 57.8516 53.0156 56.8516C53.0625 55.8516 53.1016 54.8438 53.1328 53.8281C52.9297 53.7656 52.7578 53.6641 52.6172 53.5234C52.4922 53.3672 52.4297 53.1719 52.4297 52.9375C52.4297 52.7031 52.5156 52.4844 52.6875 52.2812C52.875 52.0625 53.1016 51.9688 53.3672 52C53.9453 52.0625 54.5234 52.1328 55.1016 52.2109C55.6953 52.2734 56.2812 52.3594 56.8594 52.4688C57.4531 52.5781 58.0312 52.7188 58.5938 52.8906C59.1719 53.0625 59.7188 53.2812 60.2344 53.5469C60.5938 53.7188 60.9297 53.9453 61.2422 54.2266C61.5703 54.4922 61.8359 54.7969 62.0391 55.1406C62.2578 55.4688 62.3906 55.8281 62.4375 56.2188C62.5 56.6094 62.4453 57.0156 62.2734 57.4375C61.9609 58.2031 61.5312 58.8516 60.9844 59.3828C60.4531 59.8984 59.8125 60.3125 59.0625 60.625C58.9062 60.7031 58.75 60.7656 58.5938 60.8125C58.4375 60.8594 58.2812 60.9141 58.125 60.9766C58.3594 61.1016 58.6016 61.2656 58.8516 61.4688C59.3984 61.9219 59.875 62.4375 60.2812 63.0156C60.6875 63.5781 61.0469 64.1797 61.3594 64.8203C61.5312 65.1797 61.7031 65.5469 61.875 65.9219C62.0625 66.2969 62.1641 66.6875 62.1797 67.0938C62.1953 67.5938 62.0391 68.0234 61.7109 68.3828C61.3984 68.7266 61.0312 68.9922 60.6094 69.1797C59.4844 69.6641 58.3359 69.9453 57.1641 70.0234C56.0078 70.1172 54.8281 70.1094 53.625 70C53.4219 70.1094 53.2031 70.1484 52.9688 70.1172C52.7344 70.1016 52.5547 69.9922 52.4297 69.7891C52.2891 69.7109 52.1719 69.6094 52.0781 69.4844C51.9844 69.3438 51.9375 69.1797 51.9375 68.9922C51.9375 68.8828 51.9531 68.7812 51.9844 68.6875C52.0312 68.5781 52.0859 68.4844 52.1484 68.4062C52.1328 67.9219 52.1641 67.4453 52.2422 66.9766C52.3203 66.4922 52.3984 66.0078 52.4766 65.5234C52.5859 64.8984 52.6484 64.2734 52.6641 63.6484C52.6953 63.0078 52.7266 62.375 52.7578 61.75L52.7344 61.7266ZM54.9844 54.0625C54.9531 55 54.9141 55.9453 54.8672 56.8984C54.8359 57.8359 54.7969 58.7734 54.75 59.7109C55.3438 59.6484 55.9375 59.5625 56.5312 59.4531C57.1406 59.3281 57.7188 59.1562 58.2656 58.9375C58.4844 58.8594 58.7266 58.7422 58.9922 58.5859C59.2734 58.4297 59.4844 58.2891 59.625 58.1641C59.8438 57.9453 60.0078 57.7578 60.1172 57.6016C60.2422 57.4453 60.375 57.2109 60.5156 56.8984C60.4844 56.9453 60.4766 56.9297 60.4922 56.8516C60.5234 56.7734 60.5469 56.7031 60.5625 56.6406C60.5625 56.625 60.5625 56.5938 60.5625 56.5469C60.5781 56.4844 60.5859 56.4297 60.5859 56.3828C60.5391 56.2266 60.5 56.125 60.4688 56.0781C60.4531 56.0312 60.4297 55.9922 60.3984 55.9609C60.3984 55.9453 60.3672 55.9062 60.3047 55.8438C60.2578 55.7812 60.2188 55.7422 60.1875 55.7266C60.1094 55.6484 60.0234 55.5781 59.9297 55.5156C59.8047 55.4375 59.6641 55.3594 59.5078 55.2812C59.3672 55.1875 59.2344 55.1172 59.1094 55.0703C58.4531 54.8047 57.7734 54.5938 57.0703 54.4375C56.3828 54.2812 55.6875 54.1562 54.9844 54.0625ZM54.375 65.5C54.2969 65.9375 54.2109 66.3828 54.1172 66.8359C54.0391 67.2734 54 67.7188 54 68.1719C54.9531 68.25 55.8984 68.2656 56.8359 68.2188C57.7891 68.1562 58.7188 67.9453 59.625 67.5859C59.8125 67.5234 60 67.4297 60.1875 67.3047C60.2656 67.1484 60.2891 67.0391 60.2578 66.9766C60.1797 66.7266 60.0859 66.4922 59.9766 66.2734C59.8828 66.0391 59.7656 65.7891 59.625 65.5234C59.5 65.2578 59.3672 65.0078 59.2266 64.7734C59.0859 64.5234 58.9297 64.2812 58.7578 64.0469L58.5234 63.7656L58.2422 63.4141C58.1328 63.3047 58.0078 63.1953 57.8672 63.0859C57.7422 62.9609 57.6406 62.875 57.5625 62.8281C57.1094 62.5 56.6406 62.25 56.1562 62.0781C55.6719 61.9062 55.1641 61.7969 54.6328 61.75C54.6016 62.375 54.5703 63 54.5391 63.625C54.5234 64.25 54.4688 64.875 54.375 65.5ZM73.125 69.4141C73 69.6328 72.8047 69.7812 72.5391 69.8594C72.2891 69.9375 72.0547 69.8984 71.8359 69.7422C71.4141 69.4297 71.0078 69.1094 70.6172 68.7812C70.2266 68.4375 69.8047 68.1328 69.3516 67.8672C68.9453 67.6172 68.5391 67.3906 68.1328 67.1875C67.7266 66.9688 67.3359 66.7188 66.9609 66.4375C66.5078 66.0938 66.0859 65.7188 65.6953 65.3125C65.6797 66.0938 65.6875 66.875 65.7188 67.6562C65.75 68.4219 65.7969 69.1953 65.8594 69.9766C65.8906 70.2422 65.8047 70.4609 65.6016 70.6328C65.3984 70.8203 65.1797 70.9141 64.9453 70.9141C64.6641 70.9141 64.4453 70.8203 64.2891 70.6328C64.1328 70.4609 64.0391 70.2422 64.0078 69.9766C63.9141 68.8516 63.8594 67.75 63.8438 66.6719C63.8281 65.5781 63.8516 64.4766 63.9141 63.3672C63.7891 63.1953 63.6641 63.0234 63.5391 62.8516C63.4141 62.6641 63.2969 62.4766 63.1875 62.2891C63.0938 62.1016 63.0547 61.9219 63.0703 61.75C63.1016 61.5781 63.1641 61.4297 63.2578 61.3047C63.3672 61.1797 63.4922 61.0781 63.6328 61C63.7891 60.9219 63.9531 60.8906 64.125 60.9062C64.1562 60.5469 64.1953 60.1875 64.2422 59.8281C64.2891 59.4531 64.3359 59.0859 64.3828 58.7266C64.4297 58.4766 64.4688 58.2344 64.5 58C64.5469 57.75 64.5859 57.5 64.6172 57.25C64.6484 57.125 64.6641 57.0078 64.6641 56.8984C64.6797 56.7891 64.7031 56.6719 64.7344 56.5469C64.7344 56.4844 64.75 56.4062 64.7812 56.3125C64.7969 56.1094 64.8047 55.9141 64.8047 55.7266C64.8047 55.5234 64.8125 55.3203 64.8281 55.1172C64.8438 54.8672 64.8672 54.6016 64.8984 54.3203C64.9453 54.0234 65.0078 53.7422 65.0859 53.4766C65.1797 53.1953 65.3047 52.9375 65.4609 52.7031C65.6172 52.4688 65.8281 52.2891 66.0938 52.1641C66.3438 52.0547 66.5938 51.9922 66.8438 51.9766C67.1094 51.9609 67.3672 51.9766 67.6172 52.0234C67.8828 52.0703 68.1406 52.1406 68.3906 52.2344C68.6406 52.3125 68.8828 52.3984 69.1172 52.4922C69.6641 52.6953 70.2031 52.9297 70.7344 53.1953C71.2812 53.4453 71.7656 53.7734 72.1875 54.1797C72.5938 54.5859 72.9453 55.0703 73.2422 55.6328C73.5391 56.1797 73.6719 56.75 73.6406 57.3438C73.6094 57.7031 73.5312 58.0234 73.4062 58.3047C73.2969 58.5703 73.1406 58.8438 72.9375 59.125C72.4375 59.8281 71.8984 60.5 71.3203 61.1406C70.7422 61.7812 70.125 62.3672 69.4688 62.8984C69.1562 63.1484 68.8125 63.3984 68.4375 63.6484C68.0781 63.8984 67.6953 64.1094 67.2891 64.2812C67.4297 64.4062 67.5703 64.5312 67.7109 64.6562C67.8516 64.7812 68 64.8906 68.1562 64.9844C68.5625 65.25 68.9688 65.5 69.375 65.7344C69.7969 65.9531 70.2031 66.1953 70.5938 66.4609C70.9688 66.7266 71.3359 67.0078 71.6953 67.3047C72.0547 67.6016 72.4141 67.8828 72.7734 68.1484C72.9922 68.2891 73.1328 68.4766 73.1953 68.7109C73.2734 68.9453 73.25 69.1797 73.125 69.4141ZM66.7969 62.4531C67.1719 62.25 67.5078 62.0391 67.8047 61.8203C68.1172 61.5859 68.4219 61.3359 68.7188 61.0703C69.0312 60.7891 69.3359 60.4922 69.6328 60.1797C69.9297 59.8672 70.2188 59.5547 70.5 59.2422C70.6094 59.1016 70.7109 58.9766 70.8047 58.8672C70.8984 58.7578 70.9844 58.6562 71.0625 58.5625C71.1406 58.4531 71.2188 58.3438 71.2969 58.2344C71.3906 58.1094 71.4844 57.9688 71.5781 57.8125C71.6094 57.7656 71.6406 57.7188 71.6719 57.6719C71.7031 57.625 71.7344 57.5781 71.7656 57.5312C71.7812 57.0938 71.6875 56.6875 71.4844 56.3125C71.2188 55.8594 70.8828 55.4922 70.4766 55.2109C70.0859 54.9297 69.6484 54.6953 69.1641 54.5078C68.8828 54.3828 68.6016 54.2734 68.3203 54.1797C68.0391 54.0859 67.7422 54 67.4297 53.9219C67.3516 53.8906 67.2344 53.8594 67.0781 53.8281C66.9844 53.8594 66.9219 53.9062 66.8906 53.9688C66.8281 54.1719 66.7969 54.3125 66.7969 54.3906C66.7812 54.4375 66.7578 54.5234 66.7266 54.6484C66.7109 54.8047 66.6953 54.9297 66.6797 55.0234C66.6797 55.1016 66.6797 55.1875 66.6797 55.2812C66.6328 56.3594 66.5156 57.4219 66.3281 58.4688C66.1562 59.5156 66.0156 60.5781 65.9062 61.6562C65.875 61.8281 65.8516 62.0078 65.8359 62.1953C65.8359 62.3672 65.8281 62.5391 65.8125 62.7109C65.9531 62.7266 66.0312 62.7266 66.0469 62.7109C66.2188 62.6797 66.3516 62.6484 66.4453 62.6172C66.5547 62.5703 66.6719 62.5156 66.7969 62.4531ZM76.2188 69.6953C76.2188 69.9922 76.1172 70.2109 75.9141 70.3516C75.7266 70.5078 75.5156 70.5859 75.2812 70.5859C75.0469 70.5859 74.8359 70.5078 74.6484 70.3516C74.4609 70.2109 74.3672 69.9922 74.3672 69.6953C74.3672 68.4766 74.5078 67.3047 74.7891 66.1797C75.0703 65.0547 75.4219 63.9375 75.8438 62.8281C75.7344 62.625 75.7031 62.3984 75.75 62.1484C75.8438 61.8203 76.0469 61.6172 76.3594 61.5391C76.6719 60.7891 76.9922 60.0469 77.3203 59.3125C77.6641 58.5625 77.9922 57.8125 78.3047 57.0625C78.6172 56.3125 78.9062 55.5547 79.1719 54.7891C79.4375 54.0234 79.6562 53.2422 79.8281 52.4453C79.875 52.2109 79.9688 52.0078 80.1094 51.8359C80.2656 51.6641 80.4766 51.5781 80.7422 51.5781C80.9922 51.5781 81.2188 51.6719 81.4219 51.8594C81.625 52.0312 81.7109 52.25 81.6797 52.5156C81.6328 53.4219 81.6484 54.2578 81.7266 55.0234C81.8047 55.7734 81.9219 56.5234 82.0781 57.2734C82.2344 58.0078 82.4062 58.75 82.5938 59.5C82.7969 60.2344 82.9844 60.9688 83.1562 61.7031C83.3281 62.4062 83.4844 63.1094 83.625 63.8125C83.7656 64.5156 83.9922 65.1953 84.3047 65.8516C84.4609 66.1797 84.625 66.5 84.7969 66.8125C84.9688 67.1094 85.1562 67.4141 85.3594 67.7266C85.5469 68.0078 85.7188 68.3047 85.875 68.6172C86.0312 68.9141 86.1406 69.2422 86.2031 69.6016C86.2344 69.8516 86.1953 70.0859 86.0859 70.3047C85.9922 70.5234 85.8125 70.6719 85.5469 70.75C85.3281 70.8125 85.0938 70.7812 84.8438 70.6562C84.5938 70.5312 84.4453 70.3438 84.3984 70.0938C84.3359 69.7344 84.2109 69.4141 84.0234 69.1328C83.8516 68.8516 83.6719 68.5625 83.4844 68.2656C83.2656 67.9219 83.0625 67.5781 82.875 67.2344C82.7031 66.875 82.5469 66.5078 82.4062 66.1328C82.25 65.7422 82.1172 65.3516 82.0078 64.9609C81.8984 64.5547 81.7969 64.1484 81.7031 63.7422C81 63.6953 80.3047 63.6641 79.6172 63.6484C78.9453 63.6172 78.2656 63.5625 77.5781 63.4844C77.2031 64.4844 76.8828 65.5 76.6172 66.5312C76.3672 67.5625 76.2344 68.6172 76.2188 69.6953ZM78.4219 61.3984C78.3906 61.4453 78.3672 61.5 78.3516 61.5625C78.3516 61.6094 78.3359 61.6562 78.3047 61.7031C78.8047 61.75 79.2969 61.7812 79.7812 61.7969C80.2656 61.7969 80.7578 61.8125 81.2578 61.8438C81.0859 61.0938 80.8984 60.3516 80.6953 59.6172C80.5078 58.8672 80.3359 58.1094 80.1797 57.3438C79.8984 58.0312 79.6094 58.7109 79.3125 59.3828C79.0156 60.0391 78.7188 60.7109 78.4219 61.3984ZM90.9844 63.5781C90.6094 63.1875 90.2109 62.8281 89.7891 62.5C89.3672 62.1562 88.9453 61.8203 88.5234 61.4922C88.1172 61.1484 87.7188 60.7969 87.3281 60.4375C86.9375 60.0625 86.5781 59.6562 86.25 59.2188C85.9062 58.7656 85.6328 58.2734 85.4297 57.7422C85.2422 57.1953 85.2109 56.6328 85.3359 56.0547C85.4609 55.4297 85.7656 54.8828 86.25 54.4141C86.7344 53.9453 87.2578 53.5781 87.8203 53.3125C88.4297 53.0469 89.0469 52.8672 89.6719 52.7734C90.2969 52.6641 90.9297 52.6016 91.5703 52.5859C92.2109 52.5547 92.8516 52.5547 93.4922 52.5859C94.1484 52.6016 94.7969 52.5938 95.4375 52.5625C95.7344 52.5469 95.9531 52.6328 96.0938 52.8203C96.25 53.0078 96.3281 53.2188 96.3281 53.4531C96.3281 53.6875 96.25 53.9062 96.0938 54.1094C95.9531 54.2969 95.7344 54.3984 95.4375 54.4141C94.9844 54.4453 94.5312 54.4609 94.0781 54.4609C93.6406 54.4453 93.1953 54.4297 92.7422 54.4141C92.1328 54.3984 91.5156 54.4062 90.8906 54.4375C90.2812 54.4688 89.6797 54.5938 89.0859 54.8125C88.8828 54.8906 88.6641 54.9922 88.4297 55.1172C88.1953 55.2266 87.9766 55.3672 87.7734 55.5391C87.5859 55.7109 87.4297 55.8984 87.3047 56.1016C87.1797 56.3047 87.125 56.5234 87.1406 56.7578C87.1562 56.9766 87.2109 57.1953 87.3047 57.4141C87.3984 57.6172 87.5156 57.8203 87.6562 58.0234C87.8125 58.2266 87.9766 58.4219 88.1484 58.6094C88.3203 58.7969 88.4844 58.9688 88.6406 59.125C89 59.4844 89.375 59.8125 89.7656 60.1094C90.1562 60.4062 90.5469 60.7109 90.9375 61.0234C91.3438 61.3516 91.75 61.7188 92.1562 62.125C92.5781 62.5156 92.9375 62.9453 93.2344 63.4141C93.5469 63.8672 93.7734 64.3516 93.9141 64.8672C94.0703 65.3828 94.0938 65.9297 93.9844 66.5078C93.875 67.0547 93.6641 67.5234 93.3516 67.9141C93.0547 68.2891 92.6953 68.6328 92.2734 68.9453C91.8672 69.2422 91.4297 69.5156 90.9609 69.7656C90.5078 70 90.0703 70.2422 89.6484 70.4922C89.3828 70.6484 89.1328 70.6797 88.8984 70.5859C88.6797 70.4922 88.5078 70.3438 88.3828 70.1406C88.2734 69.9375 88.2266 69.7188 88.2422 69.4844C88.2734 69.2344 88.4219 69.0312 88.6875 68.875C89.0625 68.6562 89.4375 68.4531 89.8125 68.2656C90.1875 68.0781 90.5547 67.8672 90.9141 67.6328C91.2578 67.4141 91.5547 67.1562 91.8047 66.8594C92.0703 66.5469 92.2031 66.1875 92.2031 65.7812C92.1875 65.375 92.0547 64.9844 91.8047 64.6094C91.5703 64.2344 91.2969 63.8906 90.9844 63.5781Z" fill="white"/>
</svg>
